<?xml version="1.0" encoding="utf-8"?>
<!-- Generator: Adobe Illustrator 22.0.0, SVG Export Plug-In . SVG Version: 6.00 Build 0)  -->
<svg version="1.1" id="Layer_1" xmlns="http://www.w3.org/2000/svg" xmlns:xlink="http://www.w3.org/1999/xlink" x="0px" y="0px"
	 viewBox="0 0 759.4 246.2" style="enable-background:new 0 0 759.4 246.2;" xml:space="preserve">
<style type="text/css">
	.st0{fill:none;}
	.st1{fill:#FFFFFF;stroke:#231F20;stroke-width:1.5;stroke-miterlimit:10;}
	.st2{font-family:'Apple-Chancery';}
	.st3{font-size:118.1479px;}
	.st4{font-family:'Georgia-Italic';}
	.st5{font-size:96.5152px;}
	.st6{font-family:'Georgia-BoldItalic';}
	.st7{font-size:93.1871px;}
	.st8{font-size:116.4839px;}
</style>
<path class="st0" d="M-232,288.7l181.2-49.3c0,0,43.8,6.1,125.2,0s175.2-18.4,255.1-45.3s169-61.5,202.8-71.4
	c33.8-10,93.7-19.2,122.1-23s71.4-8.5,99.1-19.2c23,2.3,27.7,30,27.7,30s-16.1,48.4-24.6,61.5c-8.5,13.1-39.2,12.3-59.2,7.7
	c-20-4.6-73.7-13.1-139,9.2S351,264.8,294.1,282.4S10.7,360.8,10.7,360.8l-212.7,58.9L-232,288.7z"/>
<text transform="matrix(0.999 -4.526070e-02 4.526070e-02 0.999 -6.738281e-02 243.249)"><tspan x="0" y="0" class="st1 st2 st3">T</tspan><tspan x="80.6" y="-0.5" class="st1 st4 st5" rotate="-2.6">r</tspan><tspan x="116.3" y="-2.2" class="st1 st4 st5" rotate="-3.5"> </tspan><tspan x="130.8" y="-2.9" class="st1 st4 st5" rotate="-4.5">e</tspan><tspan x="178.2" y="-6.6" class="st1 st4 st5" rotate="-6.7">e</tspan><tspan x="225.3" y="-12.3" class="st1 st6 st7" rotate="-8.7"> </tspan><tspan x="252" y="-15.6" class="st1 st2 st8" rotate="-12.1">C</tspan><tspan x="326.4" y="-32.6" class="st1 st4 st5" rotate="-16.5">u</tspan><tspan x="379.4" y="-48.4" class="st1 st4 st5" rotate="-17.1">t</tspan><tspan x="411.4" y="-58.2" class="st1 st6 st7" rotate="-17.3"> </tspan><tspan x="433.9" y="-65.2" class="st1 st4 st5" rotate="-17.3">&amp;</tspan><tspan x="499" y="-85.6" class="st1 st6 st7" rotate="-16.3"> </tspan><tspan x="518.9" y="-98.9" class="st1 st2 st8" rotate="-4">T</tspan><tspan x="605.3" y="-108.1" class="st1 st4 st5" rotate="-6.4">r</tspan><tspan x="639.6" y="-111.9" class="st1 st4 st5" rotate="-5.6"> </tspan><tspan x="653.2" y="-113.1" class="st1 st4 st5" rotate="-5.7">i</tspan><tspan x="679.7" y="-120.2" class="st1 st4 st5" rotate="1.1">m</tspan></text>
</svg>
